<svg width="24" height="24" viewBox="0 0 24 24" fill="none" xmlns="http://www.w3.org/2000/svg">
<path d="M14.9995 7.49902L7.18934 15.4388C6.90804 15.7201 6.75 16.1017 6.75 16.4995C6.75 16.8973 6.90804 17.2788 7.18934 17.5601C7.47064 17.8414 7.85218 17.9995 8.25 17.9995C8.64783 17.9995 9.02936 17.8414 9.31066 17.5601L18.6208 8.12034C18.8993 7.84177 19.1203 7.51105 19.2711 7.14707C19.4219 6.7831 19.4995 6.39299 19.4995 5.99902C19.4995 5.60506 19.4219 5.21495 19.2711 4.85097C19.1203 4.487 18.8993 4.15628 18.6208 3.8777C18.3422 3.59913 18.0115 3.37815 17.6475 3.22738C17.2835 3.07662 16.8934 2.99902 16.4995 2.99902C16.1055 2.99902 15.7154 3.07662 15.3514 3.22738C14.9874 3.37815 14.6567 3.59913 14.3781 3.8777L5.06802 13.3175C4.22411 14.1614 3.75 15.306 3.75 16.4995C3.75 17.693 4.22411 18.8375 5.06802 19.6815C5.91193 20.5254 7.05653 20.9995 8.25 20.9995C9.44348 20.9995 10.5881 20.5254 11.432 19.6815L19.1245 11.999" stroke="black" stroke-opacity="0.6" stroke-width="1.5" stroke-linecap="round" stroke-linejoin="round"/>
</svg>
