<svg width="13" height="13" viewBox="0 0 13 13" fill="none" xmlns="http://www.w3.org/2000/svg">
<g clip-path="url(#clip0)">
<path fill-rule="evenodd" clip-rule="evenodd" d="M6.50001 3.25C5.30339 3.25 4.33334 4.22005 4.33334 5.41667C4.33334 6.61326 5.30339 7.58333 6.50001 7.58333C7.69661 7.58333 8.66668 6.61326 8.66668 5.41667C8.66668 4.22005 7.69661 3.25 6.50001 3.25ZM5.41668 5.41667C5.41668 4.81836 5.90169 4.33333 6.50001 4.33333C7.09834 4.33333 7.58334 4.81836 7.58334 5.41667C7.58334 6.01499 7.09834 6.5 6.50001 6.5C5.90169 6.5 5.41668 6.01499 5.41668 5.41667Z" fill="#E58C33"/>
<path fill-rule="evenodd" clip-rule="evenodd" d="M6.50001 0C3.52001 0 1.08334 2.36521 1.08334 5.30833C1.08334 7.29446 2.273 9.20779 3.44841 10.5768C4.04532 11.272 4.6612 11.8533 5.16871 12.2647C5.42177 12.4698 5.65506 12.6385 5.85131 12.7592C5.94881 12.8191 6.04598 12.8727 6.13785 12.9131C6.21233 12.9459 6.34764 13 6.50001 13C6.65238 13 6.78769 12.9459 6.86217 12.9131C6.95403 12.8727 7.05121 12.8191 7.14871 12.7592C7.34496 12.6385 7.57825 12.4698 7.83132 12.2647C8.33881 11.8533 8.95468 11.272 9.5516 10.5768C10.727 9.20779 11.9167 7.29446 11.9167 5.30833C11.9167 2.36521 9.47999 0 6.50001 0ZM2.16668 5.30833C2.16668 2.98634 4.09524 1.08333 6.50001 1.08333C8.90479 1.08333 10.8333 2.98634 10.8333 5.30833C10.8333 6.8972 9.85634 8.55888 8.72967 9.87112C8.17555 10.5165 7.60653 11.0524 7.1492 11.4231C6.9198 11.609 6.72567 11.7475 6.58126 11.8363C6.55038 11.8554 6.5233 11.8711 6.50001 11.884C6.47672 11.8711 6.44964 11.8554 6.41876 11.8363C6.27435 11.7475 6.08022 11.609 5.85082 11.4231C5.3935 11.0524 4.82449 10.5165 4.27036 9.87112C3.14369 8.55888 2.16668 6.8972 2.16668 5.30833Z" fill="#E58C33"/>
</g>
<defs>
<clipPath id="clip0">
<rect width="13" height="13" fill="white"/>
</clipPath>
</defs>
</svg>
