<svg width="12" height="12" viewBox="0 0 12 12" fill="none" xmlns="http://www.w3.org/2000/svg">
<path d="M2.24704 3.17494C2.24684 3.12519 2.26652 3.07741 2.3017 3.04222C2.33689 3.00704 2.38467 2.98736 2.43442 2.98756H8.82028C8.92377 2.98756 9.00766 3.07146 9.00766 3.17494V3.56169C9.00725 3.66501 8.9236 3.74866 8.82028 3.74907H2.43442C2.33094 3.74907 2.24704 3.66518 2.24704 3.56169V3.17494ZM2.24704 5.42349C2.24684 5.37373 2.26652 5.32595 2.3017 5.29077C2.33689 5.25558 2.38467 5.23591 2.43442 5.23611H7.32051C7.42399 5.23611 7.50788 5.32 7.50788 5.42349V5.81023C7.50747 5.91355 7.42382 5.9972 7.32051 5.99761H2.43442C2.33094 5.99761 2.24704 5.91372 2.24704 5.81023V5.42349ZM10.012 0L1.25319 0.00524658C0.571908 -0.000166175 0.0145695 0.546448 0.00674567 1.2277L0 7.74848C0.00123253 8.42638 0.549812 8.97596 1.2277 8.97843L2.98831 8.98443L2.99656 11.8019C2.99527 11.8865 3.06183 11.9568 3.14646 11.96C3.1885 11.9598 3.22891 11.9437 3.25964 11.915L6.75237 8.99192L10.0135 8.98593C10.6838 8.98765 11.231 8.45018 11.2412 7.77996V1.22995C11.24 0.551474 10.6905 0.00164968 10.012 0Z" fill="#B5B5B5"/>
</svg>
