<svg width="14" height="13" viewBox="0 0 14 13" fill="none" xmlns="http://www.w3.org/2000/svg">
<path fill-rule="evenodd" clip-rule="evenodd" d="M0.583328 1.91675C0.583328 0.950252 1.36683 0.166748 2.33333 0.166748H11.6667C12.6332 0.166748 13.4167 0.950252 13.4167 1.91675V8.33341C13.4167 9.29994 12.6332 10.0834 11.6667 10.0834H9.04166L7.46666 12.1834C7.35647 12.3303 7.18363 12.4167 6.99999 12.4167C6.81636 12.4167 6.64352 12.3303 6.53333 12.1834L4.95833 10.0834H2.33333C1.36683 10.0834 0.583328 9.29994 0.583328 8.33341V1.91675ZM2.33333 1.33341C2.01116 1.33341 1.74999 1.59458 1.74999 1.91675V8.33341C1.74999 8.65559 2.01116 8.91675 2.33333 8.91675H5.24999C5.4336 8.91675 5.6065 9.0032 5.71666 9.15008L6.99999 10.8612L8.28333 9.15008C8.39352 9.0032 8.56636 8.91675 8.74999 8.91675H11.6667C11.9888 8.91675 12.25 8.65559 12.25 8.33341V1.91675C12.25 1.59458 11.9888 1.33341 11.6667 1.33341H2.33333Z" fill="#797979"/>
</svg>
