<svg width="28" height="28" viewBox="0 0 28 28" fill="none" xmlns="http://www.w3.org/2000/svg">
<path d="M20.1834 7.3505C19.7284 6.8955 18.9934 6.8955 18.5384 7.3505L11.9584 13.9305L13.6034 15.5755L20.1834 8.98383C20.6267 8.5405 20.6267 7.79383 20.1834 7.3505ZM25.13 7.33883L13.6034 18.8655L9.54337 14.8172C9.08837 14.3622 8.35337 14.3622 7.89837 14.8172C7.44337 15.2722 7.44337 16.0072 7.89837 16.4622L12.775 21.3388C13.23 21.7938 13.965 21.7938 14.42 21.3388L26.775 8.9955C27.23 8.5405 27.23 7.8055 26.775 7.3505H26.7634C26.32 6.88383 25.585 6.88383 25.13 7.33883ZM1.3067 16.4738L6.18337 21.3505C6.63837 21.8055 7.37337 21.8055 7.82837 21.3505L8.64504 20.5338L2.9517 14.8172C2.4967 14.3622 1.7617 14.3622 1.3067 14.8172C0.851704 15.2722 0.851704 16.0188 1.3067 16.4738Z" fill="white"/>
</svg>
