<svg width="24" height="24" viewBox="0 0 24 24" fill="none" xmlns="http://www.w3.org/2000/svg">
<path d="M6.75 21H5.24927C5.05036 21 4.85959 20.921 4.71894 20.7803C4.57828 20.6397 4.49927 20.4489 4.49927 20.25V17.25" stroke="#0474B4" stroke-width="1.5" stroke-linecap="round" stroke-linejoin="round"/>
<path d="M11.25 3H14.25L19.5 8.25V12.75" stroke="#0474B4" stroke-width="1.5" stroke-linecap="round" stroke-linejoin="round"/>
<path d="M4.49927 6V3.75C4.49927 3.55109 4.57828 3.36032 4.71894 3.21967C4.85959 3.07902 5.05036 3 5.24927 3H7.5" stroke="#0474B4" stroke-width="1.5" stroke-linecap="round" stroke-linejoin="round"/>
<path d="M14.25 3V8.25H19.5007" stroke="#0474B4" stroke-width="1.5" stroke-linecap="round" stroke-linejoin="round"/>
<path d="M19.5 16.5V20.25C19.5 20.4489 19.421 20.6397 19.2803 20.7803C19.1397 20.921 18.9489 21 18.75 21H18" stroke="#0474B4" stroke-width="1.5" stroke-linecap="round" stroke-linejoin="round"/>
<path d="M4.5 9.75V13.5" stroke="#0474B4" stroke-width="1.5" stroke-linecap="round" stroke-linejoin="round"/>
<path d="M10.5 21H14.25" stroke="#0474B4" stroke-width="1.5" stroke-linecap="round" stroke-linejoin="round"/>
</svg>
