<svg width="18" height="18" viewBox="0 0 18 18" fill="none" xmlns="http://www.w3.org/2000/svg">
<path fill-rule="evenodd" clip-rule="evenodd" d="M15.9474 0H1.77193C0.79332 0 0 0.79332 0 1.77193V15.9474C0 16.926 0.79332 17.7193 1.77193 17.7193H15.9474C16.926 17.7193 17.7193 16.926 17.7193 15.9474V1.77193C17.7193 0.79332 16.926 0 15.9474 0ZM8.85965 11.0485V17.7193H11.5175V11.0485H13.7882L14.1525 8.54691H11.5175V7.47792C11.5175 6.51899 11.7881 6.04536 12.7039 6.04536H14.1754V3.65305L14.1599 3.651C13.8951 3.61595 13.35 3.54382 12.337 3.54382C10.1795 3.54382 8.85965 4.66034 8.85965 7.20358V8.54691H6.20176V11.0485H8.85965Z" fill="white"/>
</svg>
