<svg width="19" height="19" viewBox="0 0 19 19" fill="none" xmlns="http://www.w3.org/2000/svg">
<path d="M5.54165 3.95834C5.54165 3.52112 5.1872 3.16667 4.74998 3.16667C4.31276 3.16667 3.95831 3.52112 3.95831 3.95834V13.5263L2.93478 12.5027C2.62561 12.1936 2.12435 12.1936 1.81518 12.5027C1.50602 12.8119 1.50602 13.3131 1.81518 13.6223L3.6304 15.4375C4.24872 16.0558 5.25123 16.0558 5.86956 15.4375L7.68478 13.6223C7.99391 13.3131 7.99391 12.8119 7.68478 12.5027C7.37561 12.1936 6.87435 12.1936 6.56518 12.5027L5.54165 13.5263V3.95834Z" fill="#0474B4"/>
<path fill-rule="evenodd" clip-rule="evenodd" d="M9.5 13.4583C9.5 13.8956 9.85443 14.25 10.2917 14.25H16.625C17.0622 14.25 17.4167 13.8956 17.4167 13.4583C17.4167 13.0211 17.0622 12.6667 16.625 12.6667H10.2917C9.85443 12.6667 9.5 13.0211 9.5 13.4583Z" fill="#0474B4"/>
<path fill-rule="evenodd" clip-rule="evenodd" d="M9.5 9.5C9.5 9.06276 9.85443 8.70833 10.2917 8.70833H14.25C14.6872 8.70833 15.0417 9.06276 15.0417 9.5C15.0417 9.93723 14.6872 10.2917 14.25 10.2917H10.2917C9.85443 10.2917 9.5 9.93723 9.5 9.5Z" fill="#0474B4"/>
<path fill-rule="evenodd" clip-rule="evenodd" d="M9.5 5.54167C9.5 5.10445 9.85443 4.75 10.2917 4.75H11.875C12.3122 4.75 12.6667 5.10445 12.6667 5.54167C12.6667 5.97889 12.3122 6.33333 11.875 6.33333H10.2917C9.85443 6.33333 9.5 5.97889 9.5 5.54167Z" fill="#0474B4"/>
</svg>
