<svg width="27" height="27" viewBox="0 0 27 27" fill="none" xmlns="http://www.w3.org/2000/svg">
<path fill-rule="evenodd" clip-rule="evenodd" d="M5.81872 13.5C5.81872 12.6232 5.96426 11.7824 6.22435 10.9939L1.67443 7.51953C0.787647 9.31988 0.288147 11.3487 0.288147 13.5C0.288147 15.6497 0.787225 17.677 1.67253 19.4763L6.21992 15.9952C5.96237 15.2103 5.81872 14.3727 5.81872 13.5Z" fill="#134F8B"/>
<path fill-rule="evenodd" clip-rule="evenodd" d="M13.8074 5.52277C15.7123 5.52277 17.4329 6.19777 18.7848 7.30223L22.7176 3.375C20.3211 1.28862 17.2486 0 13.8074 0C8.46473 0 3.87304 3.05522 1.67444 7.5195L6.22415 10.9939C7.27251 7.81165 10.2609 5.52277 13.8074 5.52277Z" fill="#3E7FC0"/>
<path fill-rule="evenodd" clip-rule="evenodd" d="M13.8074 21.4769C10.2611 21.4769 7.27272 19.1881 6.22436 16.0059L1.67444 19.4796C3.87304 23.9445 8.46473 26.9997 13.8074 26.9997C17.1047 26.9997 20.253 25.8288 22.6157 23.635L18.2969 20.2963C17.0784 21.0639 15.5438 21.4769 13.8074 21.4769Z" fill="#3E7FC0"/>
<path fill-rule="evenodd" clip-rule="evenodd" d="M26.7118 13.4994C26.7118 12.7016 26.5889 11.8425 26.4045 11.0449H13.8073V16.2608H21.0585C20.6959 18.0392 19.7091 19.4063 18.2969 20.296L22.6156 23.6347C25.0975 21.3313 26.7118 17.8998 26.7118 13.4994Z" fill="#134F8B"/>
</svg>
