<?xml version="1.0" encoding="utf-8"?>
<!-- Generator: Adobe Illustrator 25.4.1, SVG Export Plug-In . SVG Version: 6.00 Build 0)  -->
<svg version="1.1" id="Layer_1" xmlns="http://www.w3.org/2000/svg" xmlns:xlink="http://www.w3.org/1999/xlink" x="0px" y="0px"
	 viewBox="0 0 17 15" style="enable-background:new 0 0 17 15;" xml:space="preserve">
<style type="text/css">
	.st0{fill-rule:evenodd;clip-rule:evenodd;fill:#0474B4;}
</style>
<path class="st0" d="M7.4,3.1c-1.2-1.3-3.2-1.3-4.5,0c-1.2,1.3-1.2,3.3,0,4.6l4.9,5c0.4,0.4,1,0.4,1.4,0l4.9-5
	c1.2-1.3,1.2-3.3,0-4.6c-1.2-1.3-3.2-1.3-4.5,0L8.9,3.8C8.8,3.9,8.7,4,8.5,4S8.2,3.9,8.1,3.8L7.4,3.1z"/>
<path class="st0" d="M8.2,2.3l0.3,0.3l0.3-0.3c1.7-1.7,4.5-1.7,6.2,0c1.7,1.7,1.7,4.5,0,6.2l-4.9,5c-0.9,0.9-2.3,0.9-3.1,0L2,8.5
	C0.4,6.8,0.4,4,2,2.3C3.7,0.5,6.5,0.5,8.2,2.3z"/>
</svg>
