<svg width="17" height="15" viewBox="0 0 17 15" fill="none" xmlns="http://www.w3.org/2000/svg">
<path fill-rule="evenodd" clip-rule="evenodd" d="M7.35303 3.09777C6.12125 1.84241 4.12894 1.84241 2.89719 3.09777C1.65927 4.35942 1.65927 6.40956 2.89719 7.67116L7.79368 12.6615C8.18159 13.0569 8.81841 13.0569 9.20633 12.6615L14.1028 7.67116C15.3407 6.40956 15.3407 4.35942 14.1028 3.09777C12.871 1.84241 10.8787 1.84241 9.64705 3.09777L8.92378 3.83483C8.81215 3.94862 8.65944 4.01274 8.5 4.01274C8.34056 4.01274 8.18785 3.94862 8.07622 3.83483L7.35303 3.09777ZM8.20059 2.26609L8.5 2.57121L8.79941 2.26609C10.4967 0.536302 13.2532 0.536302 14.9504 2.26609C16.6415 3.98959 16.6415 6.77935 14.9504 8.50288L10.054 13.4932C9.20055 14.363 7.79945 14.363 6.94604 13.4932L2.04957 8.50288C0.358478 6.77935 0.358478 3.98959 2.04957 2.26609C3.74682 0.536302 6.50336 0.536302 8.20059 2.26609Z" fill="#0474B4"/>
</svg>
