<svg width="34" height="34" viewBox="0 0 34 34" fill="none" xmlns="http://www.w3.org/2000/svg">
<path fill-rule="evenodd" clip-rule="evenodd" d="M8.68014 5.72626C6.35903 6.07841 4.24984 8.02804 4.24984 11.6569C4.24984 13.4209 4.98677 15.3543 6.24365 17.3395C7.49136 19.3102 9.17889 21.2178 10.9054 22.9009C12.6267 24.5789 14.3536 26.0019 15.6529 27.0068C16.1859 27.4189 16.645 27.7593 16.9998 28.0164C17.3547 27.7593 17.8138 27.4189 18.3467 27.0068C19.6461 26.0019 21.373 24.5789 23.0943 22.9009C24.8208 21.2178 26.5083 19.3102 27.756 17.3395C29.0129 15.3543 29.7498 13.4209 29.7498 11.6569C29.7498 8.02804 27.6406 6.07841 25.3195 5.72626C22.9624 5.36866 19.9891 6.60933 18.2869 10.3103C18.0557 10.8129 17.5531 11.135 16.9998 11.135C16.4466 11.135 15.944 10.8129 15.7128 10.3103C14.0106 6.60933 11.0372 5.36866 8.68014 5.72626ZM16.9998 29.75L17.7905 30.9255C17.3124 31.2471 16.6873 31.2471 16.2092 30.9255L16.9998 29.75ZM16.9998 6.92031C14.7117 3.78818 11.3639 2.45334 8.25514 2.92499C4.45883 3.50094 1.4165 6.72074 1.4165 11.6569C1.4165 14.1755 2.45041 16.6449 3.84978 18.8551C5.25831 21.0799 7.11245 23.1602 8.9276 24.9298C10.748 26.7044 12.5628 28.1988 13.9197 29.2481C14.5992 29.7736 15.1668 30.1897 15.5666 30.4759C15.7665 30.619 15.9246 30.7297 16.034 30.8055C16.0887 30.8434 16.1313 30.8725 16.1607 30.8926L16.1951 30.916L16.2047 30.9225L16.2092 30.9255C16.2092 30.9255 16.2092 30.9255 16.9998 29.75C17.7905 30.9255 17.7905 30.9255 17.7905 30.9255L17.795 30.9225L17.8046 30.916L17.8389 30.8926C17.8684 30.8725 17.9109 30.8434 17.9656 30.8055C18.075 30.7297 18.2332 30.619 18.4331 30.4759C18.8328 30.1897 19.4004 29.7736 20.08 29.2481C21.4369 28.1988 23.2517 26.7044 25.0721 24.9298C26.8872 23.1602 28.7414 21.0799 30.1499 18.8551C31.5493 16.6449 32.5832 14.1755 32.5832 11.6569C32.5832 6.72074 29.5408 3.50094 25.7445 2.92499C22.6357 2.45334 19.288 3.78818 16.9998 6.92031Z" fill="#E58C33"/>
</svg>
