<svg width="19" height="18" viewBox="0 0 19 18" fill="none" xmlns="http://www.w3.org/2000/svg">
<path fill-rule="evenodd" clip-rule="evenodd" d="M5.75427 0H12.842C15.7778 0 18.1578 2.37996 18.1578 5.31579V12.4035C18.1578 15.3393 15.7778 17.7193 12.842 17.7193H5.75427C2.81844 17.7193 0.438477 15.3393 0.438477 12.4035V5.31579C0.438477 2.37996 2.81844 0 5.75427 0ZM14.6139 2.65785C15.0569 2.65785 15.4999 3.10083 15.4999 3.54382C15.4999 3.9868 15.0569 4.42978 14.6139 4.42978C14.1709 4.42978 13.728 3.9868 13.728 3.54382C13.728 3.10083 14.1709 2.65785 14.6139 2.65785ZM13.728 8.85961C13.728 6.41656 11.7412 4.42978 9.29813 4.42978C6.85508 4.42978 4.8683 6.41656 4.8683 8.85961C4.8683 11.3027 6.85508 13.2894 9.29813 13.2894C11.7412 13.2894 13.728 11.3027 13.728 8.85961ZM9.29813 6.20171C7.83021 6.20171 6.64023 7.39169 6.64023 8.85961C6.64023 10.3275 7.83021 11.5175 9.29813 11.5175C10.766 11.5175 11.956 10.3275 11.956 8.85961C11.956 7.39169 10.766 6.20171 9.29813 6.20171Z" fill="white"/>
</svg>
