<svg width="20" height="21" viewBox="0 0 20 21" fill="none" xmlns="http://www.w3.org/2000/svg">
<path d="M15 7.16666C15 5.84057 14.4732 4.5688 13.5355 3.63112C12.5979 2.69344 11.3261 2.16666 10 2.16666C8.67392 2.16666 7.40215 2.69344 6.46447 3.63112C5.52678 4.5688 5 5.84057 5 7.16666C5 13 2.5 14.6667 2.5 14.6667H17.5C17.5 14.6667 15 13 15 7.16666Z" stroke="#33261D" stroke-width="2" stroke-linecap="round" stroke-linejoin="round"/>
<path d="M11.4417 17.6667C11.2951 17.9192 11.0849 18.1289 10.8318 18.2746C10.5788 18.4203 10.292 18.497 9.99999 18.497C9.708 18.497 9.42114 18.4203 9.16813 18.2746C8.91512 18.1289 8.70483 17.9192 8.55832 17.6667" stroke="#33261D" stroke-width="2" stroke-linecap="round" stroke-linejoin="round"/>
</svg>
