<svg width="14" height="14" viewBox="0 0 14 14" fill="none" xmlns="http://www.w3.org/2000/svg">
<path d="M1.74967 2.33333C1.74967 2.01116 2.01084 1.74999 2.33301 1.74999H6.41634C6.73851 1.74999 6.99967 1.48883 6.99967 1.16666C6.99967 0.844495 6.73851 0.583328 6.41634 0.583328H2.33301C1.36651 0.583328 0.583008 1.36683 0.583008 2.33333V11.6667C0.583008 12.6332 1.36651 13.4167 2.33301 13.4167H11.6663C12.6328 13.4167 13.4163 12.6332 13.4163 11.6667V7.58333C13.4163 7.26116 13.1552 6.99999 12.833 6.99999C12.5108 6.99999 12.2497 7.26116 12.2497 7.58333V11.6667C12.2497 11.9888 11.9885 12.25 11.6663 12.25H2.33301C2.01084 12.25 1.74967 11.9888 1.74967 11.6667V2.33333Z" fill="#E58C33"/>
<path d="M9.33301 0.583328C9.01084 0.583328 8.74967 0.844495 8.74967 1.16666C8.74967 1.48883 9.01084 1.74999 9.33301 1.74999H11.4247L4.8372 8.33752C4.60939 8.56532 4.60939 8.93467 4.8372 9.16247C5.065 9.39028 5.43435 9.39028 5.66215 9.16247L12.2497 2.57495V4.66666C12.2497 4.98883 12.5108 5.24999 12.833 5.24999C13.1552 5.24999 13.4163 4.98883 13.4163 4.66666V1.16666C13.4163 0.844495 13.1552 0.583328 12.833 0.583328H9.33301Z" fill="#E58C33"/>
</svg>
