<svg width="34" height="34" viewBox="0 0 34 34" fill="none" xmlns="http://www.w3.org/2000/svg">
<path fill-rule="evenodd" clip-rule="evenodd" d="M16.9998 1.41666C17.7822 1.41666 18.4165 2.05092 18.4165 2.83332V4.24999H31.1665C31.9489 4.24999 32.5832 4.88425 32.5832 5.66666C32.5832 6.44906 31.9489 7.08332 31.1665 7.08332V24.0833C31.1665 24.8657 30.5322 25.5 29.7498 25.5H23.3423L25.3985 30.6405C25.6891 31.367 25.3358 32.1914 24.6093 32.482C23.8829 32.7726 23.0584 32.4192 22.7678 31.6928L20.2907 25.5H13.709L11.2318 31.6928C10.9413 32.4192 10.1168 32.7726 9.39037 32.482C8.66392 32.1914 8.31058 31.367 8.60116 30.6405L10.6574 25.5H4.24984C3.46743 25.5 2.83317 24.8657 2.83317 24.0833V7.08332C2.05077 7.08332 1.4165 6.44906 1.4165 5.66666C1.4165 4.88425 2.05077 4.24999 2.83317 4.24999H15.5832V2.83332C15.5832 2.05092 16.2174 1.41666 16.9998 1.41666ZM5.6665 7.08332V22.6667H28.3332V7.08332H5.6665ZM25.0849 10.3316C25.6381 10.8848 25.6381 11.7818 25.0849 12.3351L19.4182 18.0017C18.865 18.555 17.968 18.555 17.4148 18.0017L14.1665 14.7535L10.9182 18.0017C10.365 18.555 9.46801 18.555 8.91477 18.0017C8.36153 17.4485 8.36153 16.5515 8.91477 15.9983L13.1648 11.7483C13.718 11.195 14.615 11.195 15.1682 11.7483L18.4165 14.9965L23.0814 10.3316C23.6347 9.77835 24.5317 9.77835 25.0849 10.3316Z" fill="#E58C33"/>
</svg>
