<svg width="34" height="34" viewBox="0 0 34 34" fill="none" xmlns="http://www.w3.org/2000/svg">
<path fill-rule="evenodd" clip-rule="evenodd" d="M29.7499 9.91666C29.7499 14.6111 25.9443 18.4167 21.2499 18.4167C16.5555 18.4167 12.7499 14.6111 12.7499 9.91666C12.7499 5.22224 16.5555 1.41666 21.2499 1.41666C25.9443 1.41666 29.7499 5.22224 29.7499 9.91666ZM26.9166 9.91666C26.9166 13.0463 24.3795 15.5833 21.2499 15.5833C18.1203 15.5833 15.5832 13.0463 15.5832 9.91666C15.5832 6.78704 18.1203 4.24999 21.2499 4.24999C24.3795 4.24999 26.9166 6.78704 26.9166 9.91666Z" fill="#E58C33"/>
<path d="M11.6151 4.36307C12.3818 4.20742 12.8772 3.45966 12.7216 2.69289C12.5659 1.92613 11.8182 1.43072 11.0514 1.58636C7.17101 2.37404 4.2499 5.80248 4.2499 9.91636C4.2499 14.0302 7.17101 17.4587 11.0514 18.2463C11.8182 18.402 12.5659 17.9066 12.7216 17.1398C12.8772 16.3731 12.3818 15.6253 11.6151 15.4696C9.02911 14.9447 7.08324 12.6562 7.08324 9.91636C7.08324 7.17652 9.02911 4.88798 11.6151 4.36307Z" fill="#E58C33"/>
<path fill-rule="evenodd" clip-rule="evenodd" d="M13.7386 22.0625C15.4851 20.7219 17.9194 19.8333 21.25 19.8333C24.5806 19.8333 27.0148 20.7219 28.7613 22.0625C30.4948 23.3932 31.4379 25.0821 31.9493 26.5039C32.3994 27.7553 32.0841 28.9803 31.3292 29.8484C30.6002 30.6868 29.4965 31.1667 28.3332 31.1667H14.1666C13.0033 31.1667 11.8996 30.6868 11.1706 29.8484C10.4158 28.9802 10.1004 27.7553 10.5506 26.5038C11.062 25.082 12.0051 23.3931 13.7386 22.0625ZM15.4638 24.31C14.2708 25.2258 13.5977 26.4036 13.2167 27.4629C13.1371 27.6839 13.1809 27.8422 13.3087 27.9893C13.4625 28.1661 13.7651 28.3333 14.1666 28.3333H28.3332C28.7348 28.3333 29.0374 28.1661 29.1911 27.9893C29.319 27.8423 29.3627 27.6839 29.2832 27.4629C28.9022 26.4036 28.2291 25.2258 27.0361 24.31C25.8561 23.4043 24.0535 22.6667 21.25 22.6667C18.4465 22.6667 16.6438 23.4043 15.4638 24.31Z" fill="#E58C33"/>
<path d="M4.60538 27.3089C4.89538 26.1922 5.39312 25.0181 6.21454 24.1406C6.99524 23.3066 8.1323 22.6667 9.91657 22.6667C10.699 22.6667 11.3332 22.0324 11.3332 21.25C11.3332 20.4676 10.699 19.8333 9.91657 19.8333C7.33729 19.8333 5.45483 20.8062 4.14607 22.2043C2.87803 23.5589 2.21635 25.2362 1.86302 26.5967C1.17849 29.2324 3.42044 31.1667 5.66653 31.1667H6.75626C7.53866 31.1667 8.17292 30.5324 8.17292 29.75C8.17292 28.9676 7.53866 28.3333 6.75626 28.3333H5.66653C5.26628 28.3333 4.94754 28.1688 4.76633 27.9686C4.60221 27.7873 4.53692 27.5725 4.60538 27.3089Z" fill="#E58C33"/>
</svg>
