<svg width="24" height="24" viewBox="0 0 24 24" fill="none" xmlns="http://www.w3.org/2000/svg">
<path d="M22.4216 9.13257C22.328 8.83859 22.1479 8.57965 21.9049 8.38955C21.6619 8.19945 21.3672 8.08701 21.0593 8.0669L15.4915 7.67725L13.426 2.47632C13.3143 2.18879 13.1182 1.94173 12.8637 1.76751C12.6091 1.5933 12.3078 1.50005 11.9993 1.5H11.9978C11.6898 1.50055 11.3891 1.59403 11.1351 1.76822C10.8811 1.94241 10.6855 2.1892 10.574 2.47632L8.4778 7.70727L2.94069 8.0669C2.63281 8.08701 2.33814 8.19945 2.09512 8.38955C1.8521 8.57965 1.67203 8.83858 1.57839 9.13257C1.4796 9.43073 1.47288 9.75172 1.5591 10.0538C1.64532 10.3558 1.82048 10.6249 2.06178 10.8259L6.32155 14.4265L5.05446 19.4106C4.96712 19.7464 4.98318 20.1006 5.10054 20.4271C5.21789 20.7535 5.43107 21.037 5.71217 21.2402C5.98357 21.4377 6.30812 21.5489 6.64358 21.5593C6.97903 21.5698 7.30987 21.479 7.59303 21.2988L11.9876 18.5149C11.9934 18.5105 11.9993 18.5076 12.0125 18.5149L16.741 21.5105C16.9977 21.6745 17.2979 21.7572 17.6024 21.7478C17.9069 21.7384 18.2014 21.6373 18.4475 21.4578C18.7022 21.2736 18.8954 21.0169 19.0018 20.7212C19.1082 20.4254 19.1228 20.1045 19.0437 19.8003L17.6975 14.3555L21.9382 10.8259C22.1795 10.6249 22.3547 10.3558 22.4409 10.0538C22.5272 9.75172 22.5204 9.43073 22.4216 9.13257Z" fill="#E58C33"/>
</svg>
