<svg width="14" height="14" viewBox="0 0 14 14" fill="none" xmlns="http://www.w3.org/2000/svg">
<path d="M3.86514 3.18607C3.66323 2.984 3.33565 2.984 3.13375 3.18607C2.38409 3.93572 2.01563 4.98004 2.12271 6.05142C2.14943 6.31832 2.37427 6.51727 2.63686 6.51727C2.65411 6.51727 2.6715 6.5164 2.68876 6.51468C2.97308 6.48624 3.18048 6.2326 3.15204 5.94847C3.07583 5.18708 3.33584 4.44675 3.86514 3.91743C4.06721 3.71555 4.06721 3.38795 3.86514 3.18607Z" fill="#797979"/>
<path d="M5.91379 0C2.65292 0 0 2.65292 0 5.91379C0 9.17467 2.65292 11.8276 5.91379 11.8276C9.17467 11.8276 11.8276 9.17467 11.8276 5.91379C11.8276 2.65292 9.17464 0 5.91379 0ZM5.91379 10.7931C3.22328 10.7931 1.0345 8.60431 1.0345 5.91379C1.0345 3.22328 3.22328 1.0345 5.91379 1.0345C8.60414 1.0345 10.7931 3.22328 10.7931 5.91379C10.7931 8.60431 8.60431 10.7931 5.91379 10.7931Z" fill="#797979"/>
<path d="M13.8481 13.1171L10.0895 9.35846C9.88742 9.15639 9.56017 9.15639 9.3581 9.35846C9.15603 9.56037 9.15603 9.88795 9.3581 10.0899L13.1167 13.8485C13.2178 13.9495 13.35 14 13.4824 14C13.6149 14 13.7471 13.9495 13.8481 13.8485C14.0502 13.6466 14.0502 13.319 13.8481 13.1171Z" fill="#797979"/>
</svg>
