<svg width="15" height="15" viewBox="0 0 15 15" fill="none" xmlns="http://www.w3.org/2000/svg">
<path fill-rule="evenodd" clip-rule="evenodd" d="M13.248 0H1.472C0.659037 0 0 0.659037 0 1.472V13.248C0 14.061 0.659037 14.72 1.472 14.72H13.248C14.061 14.72 14.72 14.061 14.72 13.248V1.472C14.72 0.659037 14.061 0 13.248 0ZM7.36001 9.17832V14.72H9.56801V9.17832H11.4543L11.7569 7.1002H9.56801V6.21215C9.56801 5.41554 9.79274 5.02208 10.5535 5.02208H11.776V3.03471L11.7631 3.033C11.5431 3.00389 11.0903 2.94396 10.2488 2.94396C8.45641 2.94396 7.36001 3.8715 7.36001 5.98425V7.1002H5.15201V9.17832H7.36001Z" fill="#0474B4"/>
</svg>
