<svg width="16" height="15" viewBox="0 0 16 15" fill="none" xmlns="http://www.w3.org/2000/svg">
<path fill-rule="evenodd" clip-rule="evenodd" d="M14.1259 0H2.34993C1.53697 0 0.87793 0.659037 0.87793 1.472V13.248C0.87793 14.061 1.53697 14.72 2.34993 14.72H14.1259C14.9389 14.72 15.5979 14.061 15.5979 13.248V1.472C15.5979 0.659037 14.9389 0 14.1259 0ZM12.1757 4.59214C12.6033 4.54271 13.0107 4.43312 13.3899 4.27027C13.1066 4.67988 12.7479 5.03968 12.3346 5.32821C12.3386 5.41595 12.3405 5.50408 12.3405 5.59259C12.3405 8.29356 10.2148 11.408 6.32641 11.408C5.13238 11.408 4.02158 11.0696 3.08593 10.4899C3.25158 10.509 3.42 10.5186 3.59041 10.5186C4.58114 10.5186 5.49261 10.1918 6.21585 9.64347C5.2909 9.62699 4.5102 9.03576 4.24112 8.22382C4.36992 8.2472 4.50268 8.26022 4.6386 8.26022C4.8316 8.26022 5.01865 8.23532 5.19579 8.18857C4.22844 8.0012 3.50005 7.17509 3.50005 6.18459V6.15892C3.78499 6.3118 4.11114 6.40376 4.4575 6.41449C3.8904 6.04818 3.51749 5.42247 3.51749 4.7136C3.51749 4.33848 3.62172 3.98749 3.80322 3.68556C4.84626 4.92243 6.40369 5.73628 8.16045 5.82135C8.12479 5.67229 8.10577 5.51596 8.10577 5.35579C8.10577 4.22736 9.05211 3.31197 10.2196 3.31197C10.8275 3.31197 11.3768 3.56026 11.7624 3.95761C12.2442 3.86565 12.6968 3.69552 13.105 3.4614C12.9473 3.93883 12.6124 4.33924 12.1757 4.59214Z" fill="#0474B4"/>
</svg>
