<svg width="16" height="15" viewBox="0 0 16 15" fill="none" xmlns="http://www.w3.org/2000/svg">
<path fill-rule="evenodd" clip-rule="evenodd" d="M4.85448 0H10.7425C13.1814 0 15.1585 1.97711 15.1585 4.416V10.304C15.1585 12.7429 13.1814 14.72 10.7425 14.72H4.85448C2.41559 14.72 0.438477 12.7429 0.438477 10.304V4.416C0.438477 1.97711 2.41559 0 4.85448 0ZM12.2145 2.20796C12.5825 2.20796 12.9505 2.57596 12.9505 2.94396C12.9505 3.31196 12.5825 3.67997 12.2145 3.67997C11.8465 3.67997 11.4785 3.31196 11.4785 2.94396C11.4785 2.57596 11.8465 2.20796 12.2145 2.20796ZM11.4785 7.35996C11.4785 5.33044 9.828 3.67996 7.79848 3.67996C5.76896 3.67996 4.11848 5.33044 4.11848 7.35996C4.11848 9.38948 5.76896 11.04 7.79848 11.04C9.828 11.04 11.4785 9.38948 11.4785 7.35996ZM7.79849 5.15197C6.57904 5.15197 5.59049 6.14052 5.59049 7.35997C5.59049 8.57941 6.57904 9.56797 7.79849 9.56797C9.01793 9.56797 10.0065 8.57941 10.0065 7.35997C10.0065 6.14052 9.01793 5.15197 7.79849 5.15197Z" fill="#0474B4"/>
</svg>
