<svg width="61" height="61" viewBox="0 0 61 61" fill="none" xmlns="http://www.w3.org/2000/svg">
<path d="M45.0062 24.6722C45.9988 23.6797 45.9988 22.0704 45.0062 21.0778C44.0136 20.0852 42.4043 20.0852 41.4118 21.0778L27.959 34.5306L22.1312 28.7028C21.1386 27.7102 19.5293 27.7102 18.5368 28.7028C17.5442 29.6954 17.5442 31.3047 18.5368 32.2973L26.1618 39.9222C27.1543 40.9148 28.7636 40.9148 29.7562 39.9222L45.0062 24.6722Z" fill="#E58C33"/>
<path fill-rule="evenodd" clip-rule="evenodd" d="M32.9119 3.20849C31.3467 2.68677 29.6546 2.68677 28.0894 3.20849L10.2977 9.13904C7.18414 10.1769 5.08398 13.0907 5.08398 16.3728V35.5839C5.08398 43.4618 10.2435 48.8375 15.421 52.2375C20.6292 55.6578 26.3755 57.4465 28.7454 58.093C29.9012 58.4083 31.1002 58.4083 32.2559 58.093C34.6258 57.4465 40.3721 55.6578 45.5803 52.2375C50.7578 48.8375 55.9173 43.4618 55.9173 35.5839V16.3728C55.9173 13.0907 53.8172 10.1769 50.7036 9.13905L32.9119 3.20849ZM29.6969 8.03096C30.2186 7.85706 30.7827 7.85706 31.3044 8.03096L49.0961 13.9615C50.1339 14.3075 50.834 15.2787 50.834 16.3728V35.5839C50.834 40.947 47.3709 44.9802 42.79 47.9885C38.2397 50.9767 33.0916 52.596 30.9181 53.1889C30.6382 53.2652 30.3631 53.2652 30.0833 53.1889C27.9097 52.596 22.7616 50.9767 18.2114 47.9885C13.6304 44.9802 10.1673 40.947 10.1673 35.5839V16.3728C10.1673 15.2787 10.8674 14.3075 11.9052 13.9615L29.6969 8.03096Z" fill="#E58C33"/>
</svg>
