<svg width="34" height="34" viewBox="0 0 34 34" fill="none" xmlns="http://www.w3.org/2000/svg">
<path d="M18.4167 7.08333C18.4167 6.30093 17.7824 5.66667 17 5.66667C16.2176 5.66667 15.5833 6.30093 15.5833 7.08333V17C15.5833 17.3757 15.7326 17.7361 15.9983 18.0017L20.9566 22.9601C21.5098 23.5133 22.4068 23.5133 22.9601 22.9601C23.5133 22.4068 23.5133 21.5098 22.9601 20.9566L18.4167 16.4132V7.08333Z" fill="#E58C33"/>
<path fill-rule="evenodd" clip-rule="evenodd" d="M17 0C7.61116 0 0 7.61116 0 17C0 26.3888 7.61116 34 17 34C26.3888 34 34 26.3888 34 17C34 7.61116 26.3888 0 17 0ZM2.83333 17C2.83333 9.17597 9.17597 2.83333 17 2.83333C24.824 2.83333 31.1667 9.17597 31.1667 17C31.1667 24.824 24.824 31.1667 17 31.1667C9.17597 31.1667 2.83333 24.824 2.83333 17Z" fill="#E58C33"/>
</svg>
