<svg width="19" height="18" viewBox="0 0 19 18" fill="none" xmlns="http://www.w3.org/2000/svg">
<path fill-rule="evenodd" clip-rule="evenodd" d="M16.8253 0H2.64986C1.67125 0 0.87793 0.79332 0.87793 1.77193V15.9474C0.87793 16.926 1.67125 17.7193 2.64986 17.7193H16.8253C17.8039 17.7193 18.5972 16.926 18.5972 15.9474V1.77193C18.5972 0.79332 17.8039 0 16.8253 0ZM14.4777 5.52781C14.9924 5.46831 15.4828 5.3364 15.9393 5.14037C15.5983 5.63344 15.1665 6.06655 14.669 6.41386C14.6737 6.51949 14.6761 6.62557 14.6761 6.73212C14.6761 9.98343 12.1173 13.7324 7.43658 13.7324C5.99926 13.7324 4.66212 13.3251 3.53583 12.6273C3.73523 12.6503 3.93797 12.6619 4.1431 12.6619C5.3357 12.6619 6.43289 12.2684 7.30348 11.6084C6.19007 11.5886 5.25031 10.8769 4.9264 9.89948C5.08143 9.92762 5.24124 9.9433 5.40487 9.9433C5.63719 9.9433 5.86235 9.91332 6.07558 9.85705C4.91113 9.6315 4.03433 8.63706 4.03433 7.44474V7.41384C4.37732 7.59787 4.76993 7.70857 5.18686 7.72149C4.50422 7.28054 4.05532 6.52733 4.05532 5.67403C4.05532 5.22247 4.18078 4.79997 4.39927 4.43651C5.65484 5.92541 7.5296 6.90509 9.64432 7.00748C9.60139 6.82806 9.57849 6.63987 9.57849 6.44707C9.57849 5.08871 10.7177 3.9868 12.123 3.9868C12.8548 3.9868 13.516 4.28569 13.9801 4.76399C14.5602 4.6533 15.105 4.4485 15.5963 4.16668C15.4065 4.74139 15.0034 5.22339 14.4777 5.52781Z" fill="white"/>
</svg>
