<svg width="16" height="10" viewBox="0 0 16 10" fill="none" xmlns="http://www.w3.org/2000/svg">
<path d="M-0.0361358 5.31178L-0.0357639 5.31222C0.0448731 5.40752 1.00655 6.5296 2.46668 7.62907C3.92339 8.72596 5.89761 9.81666 8.00008 9.81666C10.1025 9.81666 12.0768 8.72596 13.5335 7.62907C14.9936 6.5296 15.9553 5.40752 16.0359 5.31222L16.0361 5.31201C16.176 5.14608 16.1889 4.90574 16.0644 4.7257C15.9966 4.62705 15.1985 3.49494 13.8118 2.3861C12.4255 1.27745 10.4396 0.183328 8.00008 0.183328C5.89761 0.183328 3.92339 1.27403 2.46668 2.37092C1.00655 3.47039 0.0448731 4.59247 -0.0357639 4.68777L-0.0358806 4.68791C-0.18784 4.86794 -0.187503 5.13149 -0.0361358 5.31178ZM8.00008 8.85C6.39857 8.85 4.82334 8.0848 3.53942 7.19903C2.35162 6.37956 1.42862 5.4677 0.986649 4.99988C1.4279 4.53185 2.34983 3.62005 3.53719 2.8007C4.82063 1.91506 6.39621 1.14999 8.00008 1.14999C9.88486 1.14999 11.4978 1.91699 12.7266 2.79552C13.8655 3.60978 14.6669 4.51449 15.0383 4.97439C14.6101 5.43023 13.6866 6.35018 12.4903 7.17999C11.2019 8.07368 9.61533 8.85 8.00008 8.85Z" fill="#797979" stroke="#797979" stroke-width="0.3"/>
<path d="M5.18325 5.00001C5.18325 6.55352 6.44641 7.81668 7.99992 7.81668C9.55343 7.81668 10.8166 6.55352 10.8166 5.00001C10.8166 3.4465 9.55343 2.18334 7.99992 2.18334C6.44641 2.18334 5.18325 3.4465 5.18325 5.00001ZM6.14992 5.00001C6.14992 3.98019 6.98009 3.15001 7.99992 3.15001C9.01974 3.15001 9.84992 3.98019 9.84992 5.00001C9.84992 6.01983 9.01974 6.85001 7.99992 6.85001C6.98009 6.85001 6.14992 6.01983 6.14992 5.00001Z" fill="#797979" stroke="#797979" stroke-width="0.3"/>
</svg>
