<svg width="24" height="24" viewBox="0 0 24 24" fill="none" xmlns="http://www.w3.org/2000/svg">
<path d="M13.5005 16.5C13.5005 17.3284 12.8289 18 12.0005 18C11.172 18 10.5005 17.3284 10.5005 16.5C10.5005 15.6716 11.172 15 12.0005 15C12.8289 15 13.5005 15.6716 13.5005 16.5Z" fill="#1E1E1E"/>
<path d="M11.5873 8C11.0022 8 10.5421 8.50003 10.5907 9.08305L10.9623 13.5415C10.9838 13.8007 11.2005 14 11.4605 14H12.5404C12.8004 14 13.0171 13.8007 13.0387 13.5415L13.4102 9.08305C13.4588 8.50003 12.9987 8 12.4137 8H11.5873Z" fill="#1E1E1E"/>
<path fill-rule="evenodd" clip-rule="evenodd" d="M9.39573 2.54283C10.5474 0.527389 13.4535 0.52739 14.6052 2.54283L23.1588 17.5117C24.3017 19.5117 22.8576 22.0001 20.5541 22.0001H3.44681C1.14335 22.0001 -0.300753 19.5117 0.842086 17.5117L9.39573 2.54283ZM12.8687 3.53511C12.4848 2.8633 11.5161 2.8633 11.1322 3.53511L2.57857 18.504C2.19763 19.1706 2.67899 20.0001 3.44681 20.0001H20.5541C21.3219 20.0001 21.8033 19.1706 21.4223 18.504L12.8687 3.53511Z" fill="#1E1E1E"/>
</svg>
