<svg width="25" height="25" viewBox="0 0 25 25" fill="none" xmlns="http://www.w3.org/2000/svg">
<path d="M18.75 11.4583V13.5417H22.9166V11.4583H18.75ZM16.6666 18.3437C17.6666 19.0833 18.9687 20.0625 20 20.8333C20.4166 20.2812 20.8333 19.7187 21.25 19.1667C20.2187 18.3958 18.9166 17.4167 17.9166 16.6667C17.5 17.2292 17.0833 17.7917 16.6666 18.3437ZM21.25 5.83332C20.8333 5.28124 20.4166 4.71874 20 4.16666C18.9687 4.93749 17.6666 5.91666 16.6666 6.66666C17.0833 7.21874 17.5 7.78124 17.9166 8.33332C18.9166 7.58332 20.2187 6.61457 21.25 5.83332ZM4.16665 9.37499C3.02081 9.37499 2.08331 10.3125 2.08331 11.4583V13.5417C2.08331 14.6875 3.02081 15.625 4.16665 15.625H5.20831V19.7917H7.29165V15.625H8.33331L13.5416 18.75V6.24999L8.33331 9.37499H4.16665ZM16.1458 12.5C16.1458 11.1146 15.5416 9.86457 14.5833 9.01041V15.9792C15.5416 15.1354 16.1458 13.8854 16.1458 12.5Z" fill="#CECECE"/>
</svg>
