<svg width="18" height="18" viewBox="0 0 18 18" fill="none" xmlns="http://www.w3.org/2000/svg">
<rect x="0.818115" y="0.818176" width="16.3636" height="16.3636" rx="4" fill="#C4C4C4"/>
<path d="M4.635 15C5.53799 15 6.27 14.268 6.27 13.365C6.27 12.462 5.53799 11.73 4.635 11.73C3.73201 11.73 3 12.462 3 13.365C3 14.268 3.73201 15 4.635 15Z" fill="#222D32"/>
<path d="M3 3.33V5.4525C8.2725 5.4525 12.5475 9.7275 12.5475 15H14.67C14.67 8.5575 9.4425 3.33 3 3.33ZM3 7.575V9.6975C5.925 9.6975 8.3025 12.075 8.3025 15H10.425C10.425 10.8975 7.1025 7.575 3 7.575Z" fill="#222D32"/>
</svg>
