<svg width="28" height="28" viewBox="0 0 28 28" fill="none" xmlns="http://www.w3.org/2000/svg">
<path d="M14.0002 2.33334C7.56016 2.33334 2.3335 7.56001 2.3335 14C2.3335 20.44 7.56016 25.6667 14.0002 25.6667C20.4402 25.6667 25.6668 20.44 25.6668 14C25.6668 7.56001 20.4402 2.33334 14.0002 2.33334ZM14.0002 23.3333C8.85516 23.3333 4.66683 19.145 4.66683 14C4.66683 8.85501 8.85516 4.66668 14.0002 4.66668C19.1452 4.66668 23.3335 8.85501 23.3335 14C23.3335 19.145 19.1452 23.3333 14.0002 23.3333ZM20.1806 9.67461C19.7252 9.21599 18.9838 9.21468 18.5268 9.67168L11.6668 16.5317L9.46845 14.3418C9.01351 13.8886 8.27753 13.8893 7.82346 14.3434C7.36876 14.7981 7.36876 15.5353 7.82346 15.99L11.0002 19.1667C11.3684 19.5349 11.9653 19.5349 12.3335 19.1667L20.1777 11.3225C20.6324 10.8678 20.6337 10.1309 20.1806 9.67461Z" fill="#8ADD58"/>
</svg>
