<svg width="28" height="28" viewBox="0 0 28 28" fill="none" xmlns="http://www.w3.org/2000/svg">
<path d="M14.0002 2.33334C7.5485 2.33334 2.3335 7.54834 2.3335 14C2.3335 20.4517 7.5485 25.6667 14.0002 25.6667C20.4518 25.6667 25.6668 20.4517 25.6668 14C25.6668 7.54834 20.4518 2.33334 14.0002 2.33334ZM14.0002 23.3333C8.85516 23.3333 4.66683 19.145 4.66683 14C4.66683 8.85501 8.85516 4.66668 14.0002 4.66668C19.1452 4.66668 23.3335 8.85501 23.3335 14C23.3335 19.145 19.1452 23.3333 14.0002 23.3333ZM19.011 8.98918C18.5567 8.53492 17.8203 8.53492 17.366 8.98918L14.0002 12.355L10.6343 8.98918C10.1801 8.53492 9.44358 8.53492 8.98933 8.98918C8.53508 9.44343 8.53508 10.1799 8.98933 10.6342L12.3552 14L8.98933 17.3658C8.53507 17.8201 8.53508 18.5566 8.98933 19.0108C9.44358 19.4651 10.1801 19.4651 10.6343 19.0108L14.0002 15.645L17.366 19.0108C17.8203 19.4651 18.5567 19.4651 19.011 19.0108C19.4653 18.5566 19.4653 17.8201 19.011 17.3658L15.6452 14L19.011 10.6342C19.4653 10.1799 19.4653 9.44343 19.011 8.98918Z" fill="#FE5757"/>
</svg>
