<svg width="17" height="17" viewBox="0 0 17 17" fill="none" xmlns="http://www.w3.org/2000/svg">
<path d="M7.79171 12.75C7.79171 13.5292 7.15421 14.1667 6.37504 14.1667C5.59587 14.1667 4.95837 13.5292 4.95837 12.75C4.95837 11.9708 5.59587 11.3333 6.37504 11.3333C7.15421 11.3333 7.79171 11.9708 7.79171 12.75ZM6.37504 7.08334C5.59587 7.08334 4.95837 7.72084 4.95837 8.50001C4.95837 9.27918 5.59587 9.91668 6.37504 9.91668C7.15421 9.91668 7.79171 9.27918 7.79171 8.50001C7.79171 7.72084 7.15421 7.08334 6.37504 7.08334ZM6.37504 2.83334C5.59587 2.83334 4.95837 3.47084 4.95837 4.25001C4.95837 5.02918 5.59587 5.66668 6.37504 5.66668C7.15421 5.66668 7.79171 5.02918 7.79171 4.25001C7.79171 3.47084 7.15421 2.83334 6.37504 2.83334ZM10.625 5.66668C11.4042 5.66668 12.0417 5.02918 12.0417 4.25001C12.0417 3.47084 11.4042 2.83334 10.625 2.83334C9.84587 2.83334 9.20837 3.47084 9.20837 4.25001C9.20837 5.02918 9.84587 5.66668 10.625 5.66668ZM10.625 7.08334C9.84587 7.08334 9.20837 7.72084 9.20837 8.50001C9.20837 9.27918 9.84587 9.91668 10.625 9.91668C11.4042 9.91668 12.0417 9.27918 12.0417 8.50001C12.0417 7.72084 11.4042 7.08334 10.625 7.08334ZM10.625 11.3333C9.84587 11.3333 9.20837 11.9708 9.20837 12.75C9.20837 13.5292 9.84587 14.1667 10.625 14.1667C11.4042 14.1667 12.0417 13.5292 12.0417 12.75C12.0417 11.9708 11.4042 11.3333 10.625 11.3333Z" fill="#919FA6"/>
</svg>
