<svg width="17" height="17" viewBox="0 0 17 17" fill="none" xmlns="http://www.w3.org/2000/svg">
<path d="M8.8153 8.96557C8.87497 8.94578 8.93524 8.92808 8.99582 8.91039C8.88097 8.65041 8.75563 8.38983 8.62459 8.13255C6.26798 8.83843 4.00674 8.78745 3.92577 8.78445C3.92427 8.83363 3.92188 8.88101 3.92188 8.93018C3.92188 10.1062 4.36537 11.1779 5.09463 11.9885C5.09403 11.9873 5.09283 11.9861 5.09283 11.9861C5.09283 11.9861 6.34565 9.7644 8.8153 8.96557Z" fill="#495057"/>
<path d="M8.24847 7.42816C7.45654 6.02061 6.61033 4.87215 6.54946 4.79089C5.27296 5.39361 4.3203 6.56966 4.02344 7.9871C4.14398 7.9883 6.05109 8.01229 8.24847 7.42816Z" fill="#495057"/>
<path d="M11.5234 5.49559C10.7173 4.78522 9.65913 4.35402 8.50077 4.35402C8.12895 4.35402 7.76821 4.399 7.42188 4.48236C7.49084 4.57442 8.35084 5.71509 9.13318 7.15262C10.8604 6.50462 11.5123 5.51238 11.5234 5.49559Z" fill="#495057"/>
<path d="M7.40502 4.48682C7.39994 4.48738 7.3957 4.48795 7.39062 4.4902C7.39881 4.48795 7.40389 4.48682 7.40389 4.48682H7.40502Z" fill="#495057"/>
<path d="M5.68819 12.5381L5.68909 12.5363C5.65521 12.5099 5.61922 12.4859 5.58594 12.4577C5.64681 12.5072 5.68819 12.5381 5.68819 12.5381Z" fill="#495057"/>
<path d="M9.48828 7.83417C9.59473 8.05277 9.69728 8.27466 9.79294 8.49776C9.82622 8.57812 9.85921 8.65639 9.89129 8.73495C11.4638 8.53704 13.0128 8.87019 13.0791 8.88368C13.0686 7.79849 12.6803 6.80295 12.0383 6.02301C12.0293 6.0353 11.2955 7.09621 9.48828 7.83417Z" fill="#495057"/>
<path d="M9.27863 9.67894C6.57749 10.6208 5.6959 12.5183 5.6875 12.5363C6.46384 13.1423 7.43839 13.5067 8.49959 13.5067C9.1332 13.5067 9.73712 13.3777 10.2865 13.1441C10.2184 12.7441 9.95272 11.3426 9.30832 9.66875C9.29872 9.67265 9.28883 9.67564 9.27863 9.67894Z" fill="#495057"/>
<path d="M8.50126 1.5464C4.42315 1.5464 1.11719 4.85297 1.11719 8.93047C1.11719 13.0086 4.42285 16.3139 8.50126 16.3139C12.5794 16.3139 15.8853 13.0086 15.8853 8.93047C15.8853 4.85297 12.5791 1.5464 8.50126 1.5464ZM13.4388 11.0166C13.3047 11.3348 13.1383 11.6409 12.9446 11.9267C12.753 12.2106 12.5329 12.4772 12.2903 12.7198C12.0477 12.9618 11.7814 13.1819 11.4978 13.3741C11.2114 13.5675 10.9043 13.7336 10.5871 13.8683C10.2632 14.0047 9.92469 14.1097 9.58045 14.1804C9.22722 14.253 8.86409 14.2899 8.50096 14.2899C8.13783 14.2899 7.77469 14.253 7.42146 14.1804C7.07722 14.1097 6.73808 14.0047 6.41483 13.8683C6.09697 13.7336 5.79022 13.5672 5.50385 13.3741C5.22048 13.1819 4.9536 12.9618 4.71132 12.7198C4.46873 12.4772 4.24863 12.2109 4.05702 11.9267C3.86361 11.6409 3.69749 11.3345 3.56285 11.0166C3.42611 10.6928 3.32086 10.3542 3.2501 10.0094C3.17843 9.65613 3.14185 9.2936 3.14185 8.93047C3.14185 8.56734 3.17843 8.20421 3.2501 7.85157C3.32086 7.50673 3.42611 7.16759 3.56285 6.84434C3.69749 6.52619 3.86391 6.21943 4.05702 5.93336C4.24863 5.6494 4.46873 5.38342 4.71132 5.14023C4.9536 4.89824 5.22018 4.67875 5.50385 4.48654C5.79022 4.29283 6.09697 4.1264 6.41483 3.99177C6.73808 3.85473 7.07722 3.74978 7.42146 3.67961C7.77469 3.60764 8.13783 3.57076 8.50096 3.57076C8.86409 3.57076 9.22722 3.60764 9.58045 3.67961C9.92469 3.74978 10.2632 3.85473 10.5871 3.99177C10.9046 4.1264 11.2114 4.29283 11.4978 4.48654C11.7811 4.67875 12.0477 4.89824 12.2903 5.14023C12.5329 5.38342 12.753 5.6491 12.9446 5.93336C13.1383 6.21913 13.3047 6.52619 13.4388 6.84434C13.5758 7.16759 13.6807 7.50673 13.7509 7.85157C13.8235 8.20421 13.8604 8.56734 13.8604 8.93047C13.8604 9.2936 13.8235 9.65613 13.7509 10.0094C13.6807 10.3542 13.5761 10.6928 13.4388 11.0166Z" fill="#495057"/>
<path d="M10.168 9.45703C10.7683 11.1069 11.0118 12.4502 11.0589 12.7261C12.0862 12.0328 12.8163 10.9317 13.0196 9.65614C12.9255 9.62585 11.6451 9.22044 10.168 9.45703Z" fill="#495057"/>
</svg>
