<svg width="15" height="15" viewBox="0 0 15 15" fill="none" xmlns="http://www.w3.org/2000/svg">
<path fill-rule="evenodd" clip-rule="evenodd" d="M7.5 0C11.6394 0 15 3.36064 15 7.5C15 11.6394 11.6394 15 7.5 15C3.36064 15 0 11.6394 0 7.5C0 3.36064 3.36064 0 7.5 0ZM5.15517 11.715V5.85791H3.20798V11.715H5.15517ZM12.1753 11.715V8.3562C12.1753 6.55711 11.2147 5.72019 9.93381 5.72019C8.90095 5.72019 8.43829 6.28822 8.17925 6.68719V5.85791H6.23256C6.25837 6.40743 6.23256 11.715 6.23256 11.715H8.17922V8.44397C8.17922 8.2689 8.19182 8.09388 8.24341 7.96875C8.38389 7.61909 8.70445 7.25687 9.24228 7.25687C9.94641 7.25687 10.2285 7.79417 10.2285 8.5812V11.715H12.1753ZM4.19473 3.03369C3.52852 3.03369 3.09325 3.47168 3.09325 4.04575C3.09325 4.60772 3.51527 5.05778 4.16895 5.05778H4.18151C4.86047 5.05778 5.28308 4.60772 5.28308 4.04575C5.27048 3.47168 4.8605 3.03369 4.19473 3.03369Z" fill="#495057"/>
</svg>
