<svg width="22" height="22" viewBox="0 0 22 22" fill="none" xmlns="http://www.w3.org/2000/svg">
  <path
    d="M11 1.83334C5.93998 1.83334 1.83331 5.94 1.83331 11C1.83331 16.06 5.93998 20.1667 11 20.1667C16.06 20.1667 20.1666 16.06 20.1666 11C20.1666 5.94 16.06 1.83334 11 1.83334ZM11.8066 16.28V17.4167H10.2025V16.2342C9.52415 16.0692 8.01165 15.5283 7.43415 13.5208L8.94665 12.9067C9.00165 13.1083 9.47831 14.8225 11.1466 14.8225C11.9991 14.8225 12.9616 14.3825 12.9616 13.3467C12.9616 12.4667 12.32 12.0083 10.8716 11.4858C9.86331 11.1283 7.80081 10.5417 7.80081 8.45167C7.80081 8.36 7.80998 6.25167 10.2025 5.73834V4.58334H11.8066V5.72C13.4933 6.01334 14.1075 7.36084 14.245 7.76417L12.7966 8.37834C12.6958 8.0575 12.2558 7.15 11.055 7.15C10.4133 7.15 9.39581 7.48917 9.39581 8.42417C9.39581 9.295 10.1841 9.625 11.8158 10.1658C14.0158 10.9267 14.575 12.045 14.575 13.3283C14.575 15.7392 12.2833 16.1975 11.8066 16.28Z"
    fill="#ffffff"/>
</svg>
