<svg width="22" height="22" viewBox="0 0 22 22" fill="none" xmlns="http://www.w3.org/2000/svg">
  <path
    d="M16.5 7.33334H15.5833V5.50001C15.5833 2.97001 13.53 0.916672 11 0.916672C8.46996 0.916672 6.41663 2.97001 6.41663 5.50001V7.33334H5.49996C4.49163 7.33334 3.66663 8.15834 3.66663 9.16667V18.3333C3.66663 19.3417 4.49163 20.1667 5.49996 20.1667H16.5C17.5083 20.1667 18.3333 19.3417 18.3333 18.3333V9.16667C18.3333 8.15834 17.5083 7.33334 16.5 7.33334ZM11 15.5833C9.99163 15.5833 9.16663 14.7583 9.16663 13.75C9.16663 12.7417 9.99163 11.9167 11 11.9167C12.0083 11.9167 12.8333 12.7417 12.8333 13.75C12.8333 14.7583 12.0083 15.5833 11 15.5833ZM13.8416 7.33334H8.15829V5.50001C8.15829 3.93251 9.43246 2.65834 11 2.65834C12.5675 2.65834 13.8416 3.93251 13.8416 5.50001V7.33334Z"
    fill="#ffffff"/>
</svg>
