<svg width="13" height="13" viewBox="0 0 13 13" fill="none" xmlns="http://www.w3.org/2000/svg">
<path d="M3.79167 5.9585H4.875V7.04183H3.79167V5.9585ZM11.375 3.25016V10.8335C11.375 11.4293 10.8875 11.9168 10.2917 11.9168H2.70833C2.10708 11.9168 1.625 11.4293 1.625 10.8335L1.63042 3.25016C1.63042 2.65433 2.10708 2.16683 2.70833 2.16683H3.25V1.0835H4.33333V2.16683H8.66667V1.0835H9.75V2.16683H10.2917C10.8875 2.16683 11.375 2.65433 11.375 3.25016ZM2.70833 4.3335H10.2917V3.25016H2.70833V4.3335ZM10.2917 10.8335V5.41683H2.70833V10.8335H10.2917ZM8.125 7.04183H9.20833V5.9585H8.125V7.04183ZM5.95833 7.04183H7.04167V5.9585H5.95833V7.04183Z" fill="black"/>
</svg>
