<svg width="23" height="23" viewBox="0 0 23 23" fill="none" xmlns="http://www.w3.org/2000/svg">
<path d="M14.375 2.875H4.79167C3.7375 2.875 2.88458 3.7375 2.88458 4.79167L2.875 18.2083C2.875 19.2625 3.72792 20.125 4.78208 20.125H18.2083C19.2625 20.125 20.125 19.2625 20.125 18.2083V8.625L14.375 2.875ZM7.66667 16.2917C7.13958 16.2917 6.70833 15.8604 6.70833 15.3333C6.70833 14.8062 7.13958 14.375 7.66667 14.375C8.19375 14.375 8.625 14.8062 8.625 15.3333C8.625 15.8604 8.19375 16.2917 7.66667 16.2917ZM7.66667 12.4583C7.13958 12.4583 6.70833 12.0271 6.70833 11.5C6.70833 10.9729 7.13958 10.5417 7.66667 10.5417C8.19375 10.5417 8.625 10.9729 8.625 11.5C8.625 12.0271 8.19375 12.4583 7.66667 12.4583ZM7.66667 8.625C7.13958 8.625 6.70833 8.19375 6.70833 7.66667C6.70833 7.13958 7.13958 6.70833 7.66667 6.70833C8.19375 6.70833 8.625 7.13958 8.625 7.66667C8.625 8.19375 8.19375 8.625 7.66667 8.625ZM13.4167 9.58333V4.3125L18.6875 9.58333H13.4167Z" fill="#CECECE"/>
</svg>
