<svg width="13" height="13" viewBox="0 0 13 13" fill="none" xmlns="http://www.w3.org/2000/svg">
<path d="M6.5 0.25C3.05 0.25 0.25 3.05 0.25 6.5C0.25 9.95 3.05 12.75 6.5 12.75C9.95 12.75 12.75 9.95 12.75 6.5C12.75 3.05 9.95 0.25 6.5 0.25ZM6.5 11.5C3.74375 11.5 1.5 9.25625 1.5 6.5C1.5 3.74375 3.74375 1.5 6.5 1.5C9.25625 1.5 11.5 3.74375 11.5 6.5C11.5 9.25625 9.25625 11.5 6.5 11.5ZM7.05625 5.9375C5.94375 5.56875 5.40625 5.3375 5.40625 4.75C5.40625 4.1125 6.1 3.88125 6.5375 3.88125C7.35625 3.88125 7.65625 4.5 7.725 4.71875L8.7125 4.3C8.61875 4.025 8.2 3.10625 7.05 2.90625V2.125H5.95625V2.9125C4.33125 3.2625 4.31875 4.69375 4.31875 4.7625C4.31875 6.18125 5.725 6.58125 6.4125 6.83125C7.4 7.18125 7.8375 7.5 7.8375 8.1C7.8375 8.80625 7.18125 9.10625 6.6 9.10625C5.4625 9.10625 5.1375 7.9375 5.1 7.8L4.0625 8.21875C4.45625 9.5875 5.4875 9.95625 5.95 10.0687V10.875H7.04375V10.1C7.36875 10.0437 8.93125 9.73125 8.93125 8.0875C8.9375 7.21875 8.55625 6.45625 7.05625 5.9375Z" fill="#ACACAC"/>
</svg>
