<svg width="22" height="22" viewBox="0 0 22 22" fill="none" xmlns="http://www.w3.org/2000/svg">
  <path
    d="M19.6258 10.4592L11.5316 2.36501C11.1925 2.02584 10.725 1.83334 10.2391 1.83334H3.66665C2.65831 1.83334 1.83331 2.65834 1.83331 3.66668V10.2392C1.83331 10.725 2.02581 11.1925 2.37415 11.5317L10.4683 19.6258C11.1833 20.3408 12.3475 20.3408 13.0625 19.6258L19.635 13.0533C20.35 12.3383 20.35 11.1833 19.6258 10.4592ZM5.95831 7.33334C5.19748 7.33334 4.58331 6.71918 4.58331 5.95834C4.58331 5.19751 5.19748 4.58334 5.95831 4.58334C6.71915 4.58334 7.33331 5.19751 7.33331 5.95834C7.33331 6.71918 6.71915 7.33334 5.95831 7.33334Z"
    fill="#ffffff"/>
</svg>
