<svg width="17" height="17" viewBox="0 0 17 17" fill="none" xmlns="http://www.w3.org/2000/svg">
<path d="M8.50125 1.54639C4.42315 1.54639 1.11719 4.85295 1.11719 8.93046C1.11719 13.0086 4.42315 16.3139 8.50125 16.3139C12.5794 16.3139 15.8847 13.0086 15.8847 8.93046C15.8847 4.85295 12.5791 1.54639 8.50125 1.54639ZM12.2207 7.44165C12.2246 7.52141 12.2261 7.60148 12.2261 7.68244C12.2261 10.1416 10.3544 12.9768 6.93178 12.9768C5.88107 12.9768 4.90263 12.6688 4.07921 12.1411C4.22494 12.1582 4.37277 12.1669 4.523 12.1669C5.395 12.1669 6.19742 11.8694 6.83403 11.3704C6.01991 11.3551 5.33293 10.8169 5.09604 10.0777C5.20938 10.0999 5.32603 10.111 5.44597 10.111C5.6157 10.111 5.78002 10.0888 5.93625 10.0459C5.08464 9.87502 4.44324 9.12237 4.44324 8.22159C4.44324 8.21349 4.44324 8.20569 4.44354 8.1976C4.69422 8.33703 4.98119 8.42069 5.28645 8.43059C4.78688 8.09624 4.45853 7.52741 4.45853 6.88151C4.45853 6.54057 4.55029 6.22062 4.71042 5.94594C5.62829 7.07162 6.99955 7.81258 8.54623 7.88994C8.51445 7.7541 8.49795 7.61167 8.49795 7.46594C8.49795 6.43862 9.33097 5.6053 10.3589 5.6053C10.8941 5.6053 11.3775 5.8314 11.717 6.19273C12.141 6.10967 12.5392 5.95434 12.8987 5.74114C12.7593 6.17594 12.4645 6.54057 12.0801 6.77056C12.457 6.72558 12.8156 6.62543 13.1491 6.4776C12.9002 6.85152 12.5845 7.17927 12.2207 7.44165Z" fill="#495057"/>
</svg>
