<svg width="24" height="24" viewBox="0 0 24 24" fill="none" xmlns="http://www.w3.org/2000/svg">
<g clip-path="url(#clip0_109:385)">
<path d="M12 23.52C18.3623 23.52 23.52 18.3623 23.52 12C23.52 5.63769 18.3623 0.480011 12 0.480011C5.63766 0.480011 0.47998 5.63769 0.47998 12C0.47998 18.3623 5.63766 23.52 12 23.52Z" stroke="#134E8B" stroke-width="0.96" stroke-miterlimit="10" stroke-linecap="round"/>
<path d="M14.3679 17.0534C14.2978 16.2797 14.3247 15.7397 14.3247 15.0326C14.6751 14.8488 15.3029 13.6766 15.409 12.6864C15.6845 12.6638 16.1189 12.395 16.2461 11.3337C16.3148 10.764 16.0421 10.4433 15.8761 10.3425C16.3244 8.99423 17.2556 4.82303 14.1538 4.39199C13.8346 3.83135 13.0172 3.54767 11.9549 3.54767C7.70503 3.62591 7.19239 6.75695 8.12407 10.3425C7.95847 10.4433 7.68583 10.764 7.75399 11.3337C7.88167 12.395 8.31559 12.6638 8.59111 12.6864C8.69671 13.6761 9.34951 14.8488 9.70087 15.0326C9.70087 15.7397 9.72727 16.2797 9.65719 17.0534C9.05191 18.6806 5.94343 18.8078 4.15015 20.3769C6.02503 22.2648 9.06343 23.615 12.2698 23.615C15.4762 23.615 19.2452 21.0835 19.8725 20.3928C18.0903 18.8093 14.9746 18.6864 14.3679 17.0534Z" stroke="#134E8B" stroke-width="0.96" stroke-miterlimit="10" stroke-linecap="round"/>
</g>
<defs>
<clipPath id="clip0_109:385">
<rect width="24" height="24" fill="white"/>
</clipPath>
</defs>
</svg>
