<svg width="21" height="21" viewBox="0 0 21 21" fill="none" xmlns="http://www.w3.org/2000/svg">
  <path
    d="M14 9.625C15.4525 9.625 16.6163 8.4525 16.6163 7C16.6163 5.5475 15.4525 4.375 14 4.375C12.5475 4.375 11.375 5.5475 11.375 7C11.375 8.4525 12.5475 9.625 14 9.625ZM7 9.625C8.4525 9.625 9.61625 8.4525 9.61625 7C9.61625 5.5475 8.4525 4.375 7 4.375C5.5475 4.375 4.375 5.5475 4.375 7C4.375 8.4525 5.5475 9.625 7 9.625ZM7 11.375C4.96125 11.375 0.875 12.3988 0.875 14.4375V16.625H13.125V14.4375C13.125 12.3988 9.03875 11.375 7 11.375ZM14 11.375C13.7463 11.375 13.4575 11.3925 13.1512 11.4188C14.1662 12.1538 14.875 13.1425 14.875 14.4375V16.625H20.125V14.4375C20.125 12.3988 16.0387 11.375 14 11.375Z"
    fill="#ffffff"/>
</svg>
