<svg width="16" height="16" viewBox="0 0 16 16" fill="none" xmlns="http://www.w3.org/2000/svg">
<path fill-rule="evenodd" clip-rule="evenodd" d="M8 0C12.4153 0 16 3.58469 16 8C16 12.4153 12.4153 16 8 16C3.58469 16 0 12.4153 0 8C0 3.58469 3.58469 0 8 0ZM12.7911 5.59306C12.6761 5.16278 12.3373 4.824 11.907 4.709C11.1271 4.5 8 4.5 8 4.5C8 4.5 4.87291 4.5 4.09297 4.709C3.66281 4.824 3.32391 5.16278 3.20891 5.59306C3 6.37291 3 8.00006 3 8.00006C3 8.00006 3 9.62716 3.20891 10.4069C3.32391 10.8372 3.66281 11.1761 4.09297 11.2911C4.87291 11.5 8 11.5 8 11.5C8 11.5 11.1271 11.5 11.907 11.2911C12.3373 11.1761 12.6761 10.8372 12.7911 10.4069C13 9.62716 13 8.00006 13 8.00006C13 8.00006 13 6.37291 12.7911 5.59306ZM6.99997 9.50009V6.50003L9.598 8.00006L6.99997 9.50009Z" fill="#495057"/>
</svg>
